<?xml version="1.0" encoding="utf-8"?>
<!-- Generator: Adobe Illustrator 25.3.1, SVG Export Plug-In . SVG Version: 6.00 Build 0)  -->
<svg version="1.1" id="Layer_1" xmlns="http://www.w3.org/2000/svg" xmlns:xlink="http://www.w3.org/1999/xlink" x="0px" y="0px"
	 viewBox="0 0 17 134" style="enable-background:new 0 0 17 134;" xml:space="preserve">
<style type="text/css">
	.st0{display:none;}
</style>
<polygon id="second" points="5.2,-17.5 0.8,-21.9 0.8,0 -0.8,0 -0.8,-21.9 -5.2,-17.4 0,-35.7 "/>
<path id="hour" class="st0" d="M0.1-95.2C-1.7-85.3-2.6-76.4-8-66.9c0,2.6,3.5,4.8,6.9,5.5l-1,56.5C-3.9-4.1-5-2.4-5-0.4
	c0,2.8,2.2,5,5,5s5-2.2,5-5c0-1.9-1.1-3.7-2.8-4.5L0.8-61.5C4.2-62.2,8-64.5,8-67C2.8-76.4,1.9-85.3,0.1-95.2z M0-88.1
	c0.9,6.6,1.7,13.2,5,20c0.1,2.7-2.6,3.7-5,5c-2.4-1.3-5.1-2.3-5-5C-1.8-74.9-0.9-81.5,0-88.1z"/>
<path id="minute" class="st0" d="M-0.1-127.2c-1.8,10-2.7,18.8-8,28.4c0,2.6,3,4.2,6.3,4.5L-2.1-6.8C-5-5.9-7-3.2-7-0.2
	c0,3.9,3.1,7,7,7c3.9,0,7-3.1,7-7c0-3-1.9-5.6-4.7-6.6L1.5-94.2c3.4-0.3,6.6-2.2,6.7-4.7C2.5-108.3,1.7-117.1-0.1-127.2z"/>
</svg>
