<?xml version="1.0" encoding="utf-8"?>
<!-- Generator: Adobe Illustrator 25.3.1, SVG Export Plug-In . SVG Version: 6.00 Build 0)  -->
<svg version="1.1" id="svg2" xmlns="http://www.w3.org/2000/svg" xmlns:xlink="http://www.w3.org/1999/xlink" x="0px" y="0px"
	 viewBox="0 0 300.1 300.1" style="enable-background:new 0 0 300.1 300.1;" xml:space="preserve">
<style type="text/css">
	.st0{fill:none;stroke:#000000;}
	.st1{fill:#FFFFFF;stroke:#000000;stroke-width:0.21;stroke-miterlimit:1.9;}
	.st2{fill:none;stroke:#000000;stroke-width:0.65;}
	.st3{fill:none;stroke:#000000;stroke-width:0.85;}
</style>
<g id="layer1">
	<path id="path3171" d="M151.7,1.9c0,0.9-0.7,1.6-1.6,1.6s-1.6-0.7-1.6-1.6s0.7-1.6,1.6-1.6S151.7,1,151.7,1.9z"/>
	<g id="use3176">
		<path id="path3171-2" d="M225.8,21.7c0,0.9-0.7,1.6-1.6,1.6s-1.6-0.7-1.6-1.6c0-0.9,0.7-1.6,1.6-1.6S225.8,20.8,225.8,21.7z"/>
	</g>
	<g id="use3178">
		<path id="path3171-3" d="M280,75.9c0,0.9-0.7,1.6-1.6,1.6s-1.6-0.7-1.6-1.6s0.7-1.6,1.6-1.6S280,75.1,280,75.9z"/>
	</g>
	<g id="use3180">
		<path id="path3171-4" d="M299.8,150.1c0,0.9-0.7,1.6-1.6,1.6c-0.9,0-1.6-0.7-1.6-1.6s0.7-1.6,1.6-1.6
			C299.1,148.5,299.8,149.2,299.8,150.1z"/>
	</g>
	<g id="use3182">
		<path id="path3171-5" d="M279.9,224.1c0,0.9-0.7,1.6-1.6,1.6s-1.6-0.7-1.6-1.6s0.7-1.6,1.6-1.6S279.9,223.2,279.9,224.1z"/>
	</g>
	<g id="use3184">
		<path id="path3171-6" d="M225.6,278.2c0,0.9-0.7,1.6-1.6,1.6c-0.9,0-1.6-0.7-1.6-1.6c0-0.9,0.7-1.6,1.6-1.6
			C224.9,276.6,225.6,277.3,225.6,278.2z"/>
	</g>
	<g id="use3186">
		<path id="path3171-7" d="M151.7,297.9c0,0.9-0.7,1.6-1.6,1.6s-1.6-0.7-1.6-1.6s0.7-1.6,1.6-1.6S151.7,297,151.7,297.9z"/>
	</g>
	<g id="use3188">
		<path id="path3171-8" d="M77.6,21.8c0,0.9-0.7,1.6-1.6,1.6c-0.9,0-1.6-0.7-1.6-1.6c0-0.9,0.7-1.6,1.6-1.6
			C76.9,20.2,77.6,20.9,77.6,21.8z"/>
	</g>
	<g id="use3190">
		<path id="path3171-9" d="M23.5,76.1c0,0.9-0.7,1.6-1.6,1.6c-0.9,0-1.6-0.7-1.6-1.6c0-0.9,0.7-1.6,1.6-1.6
			C22.8,74.5,23.5,75.2,23.5,76.1z"/>
	</g>
	<g id="use3192">
		<path id="path3171-10" d="M3.8,150.1c0,0.9-0.7,1.6-1.6,1.6s-1.6-0.7-1.6-1.6s0.7-1.6,1.6-1.6S3.8,149.2,3.8,150.1z"/>
	</g>
	<g id="use3194">
		<path id="path3171-11" d="M23.7,223.9c0,0.9-0.7,1.6-1.6,1.6c-0.9,0-1.6-0.7-1.6-1.6c0-0.9,0.7-1.6,1.6-1.6
			C23,222.4,23.7,223.1,23.7,223.9z"/>
	</g>
	<g id="use3196">
		<path id="path3171-12" d="M77.8,278c0,0.9-0.7,1.6-1.6,1.6c-0.9,0-1.6-0.7-1.6-1.6s0.7-1.6,1.6-1.6C77,276.4,77.8,277.2,77.8,278z
			"/>
	</g>
	<g id="g3259">
		<g id="g3203">
			<path id="use2407" class="st0" d="M300,134.3l-5.3,0.6"/>
			<path id="use2409" class="st0" d="M297.6,118.7l-5.2,1.1"/>
			<path id="use2411" class="st0" d="M293.5,103.4l-5.1,1.6"/>
			<path id="use2413" class="st0" d="M287.8,88.7l-4.8,2.1"/>
		</g>
		<g id="g3209">
			<path id="path3211" class="st0" d="M272.1,61.4l-4.3,3.1"/>
			<path id="path3213" class="st0" d="M262.1,49.1l-4,3.6"/>
			<path id="path3215" class="st0" d="M250.9,37.9l-3.6,3.9"/>
			<path id="path3217" class="st0" d="M238.7,28l-3.1,4.3"/>
		</g>
		<g id="g3219">
			<path id="path3221" class="st0" d="M211.5,12.3l-2.1,4.8"/>
			<path id="path3223" class="st0" d="M196.8,6.7l-1.7,5.1"/>
			<path id="path3225" class="st0" d="M181.5,2.6l-1.1,5.2"/>
			<path id="path3227" class="st0" d="M165.9,0.1l-0.6,5.3"/>
		</g>
		<g id="g3229">
			<path id="path3231" class="st0" d="M287.9,211.4l-4.9-2.1"/>
			<path id="path3233" class="st0" d="M293.5,196.6l-5.1-1.6"/>
			<path id="path3235" class="st0" d="M297.6,181.4l-5.2-1.1"/>
			<path id="path3237" class="st0" d="M300.1,165.8l-5.3-0.6"/>
		</g>
		<g id="g3239">
			<path id="path3241" class="st0" d="M238.6,272.1l-3.1-4.3"/>
			<path id="path3243" class="st0" d="M250.9,262.2l-3.6-4"/>
			<path id="path3245" class="st0" d="M262.1,251l-3.9-3.5"/>
			<path id="path3247" class="st0" d="M272,238.8l-4.3-3.2"/>
		</g>
		<g id="g3249">
			<path id="path3251" class="st0" d="M165.9,300l-0.6-5.3"/>
			<path id="path3253" class="st0" d="M181.5,297.5l-1.1-5.2"/>
			<path id="path3255" class="st0" d="M196.7,293.5l-1.6-5.1"/>
			<path id="path3257" class="st0" d="M211.5,287.8l-2.1-4.9"/>
		</g>
	</g>
	<g id="g3291">
		<g id="g3293">
			<path id="path3295" class="st0" d="M0.1,165.6l5.3-0.6"/>
			<path id="path3297" class="st0" d="M2.5,181.2l5.2-1.1"/>
			<path id="path3299" class="st0" d="M6.6,196.5l5.1-1.6"/>
			<path id="path3301" class="st0" d="M12.2,211.2l4.9-2.1"/>
		</g>
		<g id="g3303">
			<path id="path3305" class="st0" d="M28,238.6l4.2-3.2"/>
			<path id="path3307" class="st0" d="M37.9,250.9l4-3.6"/>
			<path id="path3309" class="st0" d="M49,262l3.6-3.9"/>
			<path id="path3311" class="st0" d="M61.3,272l3.2-4.3"/>
		</g>
		<g id="g3313">
			<path id="path3315" class="st0" d="M88.4,287.7l2.1-4.8"/>
			<path id="path3317" class="st0" d="M103.2,293.4l1.6-5.1"/>
			<path id="path3319" class="st0" d="M118.4,297.5l1.1-5.2"/>
			<path id="path3321" class="st0" d="M134,300l0.6-5.3"/>
		</g>
		<g id="g3323">
			<path id="path3325" class="st0" d="M12.3,88.6l4.8,2.1"/>
			<path id="path3327" class="st0" d="M6.7,103.3l5.1,1.6"/>
			<path id="path3329" class="st0" d="M2.6,118.6l5.2,1.1"/>
			<path id="path3331" class="st0" d="M0.1,134.1l5.3,0.6"/>
		</g>
		<g id="g3333">
			<path id="path3335" class="st0" d="M61.6,27.9l3.1,4.3"/>
			<path id="path3337" class="st0" d="M49.3,37.8l3.6,4"/>
			<path id="path3339" class="st0" d="M38.2,48.9l3.9,3.6"/>
			<path id="path3341" class="st0" d="M28.2,61.2l4.2,3.1"/>
		</g>
		<g id="g3343">
			<path id="path3345" class="st0" d="M134.4,0.1l0.6,5.3"/>
			<path id="path3347" class="st0" d="M118.8,2.5l1.1,5.2"/>
			<path id="path3349" class="st0" d="M103.5,6.6l1.6,5.1"/>
			<path id="path3351" class="st0" d="M88.8,12.2l2.1,4.9"/>
		</g>
	</g>
	<g id="text2457">
		<path id="path3084" d="M147,9.3l-2.3,13.5l2.4,18.2h1.5c0.1,0,0.1,0.2,0.2,0.5c0,0.3,0.1,0.6,0.1,1c0,0.1,0,0.4,0,0.8
			s-0.1,0.6-0.2,0.6h-4.2c-0.1,0-0.2-0.2-0.2-0.5c0-0.3,0-0.7,0-1.1s0-0.5,0-0.8s0.1-0.5,0.2-0.5h0.9l-1.6-12.3l-2.1,12.3h0.9
			c0.1,0,0.1,0.2,0.2,0.5c0,0.3,0,0.6,0,1c0,0.1,0,0.4,0,0.8c0,0.4-0.1,0.6-0.2,0.6h-3c-0.1,0-0.1-0.1-0.2-0.5c0-0.4,0-0.7,0-1.1
			c0-0.1,0-0.4,0-0.8s0.1-0.6,0.2-0.6h1.5l2.4-14.2l-2.3-17.5h-1.4c-0.1,0-0.2-0.1-0.2-0.4c0-0.3-0.1-0.7-0.1-1.1c0-0.2,0-0.4,0-0.8
			c0-0.4,0.1-0.6,0.2-0.6h4.1c0.1,0,0.2,0.2,0.2,0.5c0,0.3,0.1,0.6,0.1,0.9c0,0.2,0,0.5-0.1,0.9s-0.1,0.6-0.2,0.6H143l1.5,11.6
			l2-11.5h-1c-0.1,0-0.1-0.1-0.2-0.4s0-0.7,0-1.1c0-0.2,0-0.4,0-0.8c0-0.4,0.1-0.6,0.2-0.6h3c0.1,0,0.2,0.2,0.2,0.5
			c0,0.3,0.1,0.6,0.1,1c0,0.1,0,0.4,0,0.8c0,0.4-0.1,0.6-0.2,0.6L147,9.3"/>
		<path id="path3086" d="M153.2,9.3v31.8h1.5c0.1,0,0.2,0.2,0.2,0.5c0,0.3,0,0.6,0,1c0,0.2,0,0.5-0.1,0.8c-0.1,0.3-0.1,0.5-0.2,0.6
			h-4.4c-0.1,0-0.1-0.2-0.2-0.5c0-0.4-0.1-0.7-0.1-1.1c0-0.2,0-0.5,0-0.8s0.1-0.5,0.2-0.5h1.5V9.3h-1.5c-0.1,0-0.2-0.1-0.2-0.4
			c0-0.3,0-0.7,0-1.1c0-0.2,0-0.4,0-0.7s0.1-0.7,0.2-0.7h4.5c0.1,0,0.2,0.2,0.2,0.6c0,0.3,0.1,0.6,0.1,0.9c0,0.1,0,0.4,0,0.8
			s-0.1,0.6-0.2,0.6L153.2,9.3"/>
		<path id="path3088" d="M159.1,9.3v31.8h1.5c0.1,0,0.2,0.2,0.2,0.5s0,0.6,0,1c0,0.3,0,0.6,0,0.8c0,0.3-0.1,0.5-0.2,0.6h-4.5
			c-0.1,0-0.2-0.2-0.2-0.5c0-0.4,0-0.7,0-1.1c0-0.2,0-0.5,0-0.8s0.1-0.5,0.2-0.5h1.5V9.3h-1.5c-0.1,0-0.2-0.1-0.2-0.4
			c0-0.3,0-0.7,0-1.1c0-0.2,0-0.4,0-0.7s0.1-0.7,0.2-0.7h4.5c0.1,0,0.1,0.2,0.2,0.6c0,0.3,0.1,0.6,0.1,0.9c0,0.1,0,0.4,0,0.8
			s-0.1,0.6-0.2,0.6L159.1,9.3"/>
	</g>
	<g id="text2461">
		<path id="path3025" d="M79.4,27.8l4.8,12.9l11.1,14.6l1.3-0.8c0.1,0,0.2,0.1,0.4,0.4c0.2,0.3,0.4,0.5,0.5,0.8
			c0.1,0.1,0.2,0.4,0.4,0.7c0.2,0.3,0.2,0.6,0.1,0.6l-3.6,2.1c-0.1,0-0.2-0.1-0.4-0.3c-0.2-0.3-0.4-0.6-0.6-0.9
			c-0.1-0.2-0.2-0.4-0.4-0.7c-0.1-0.3-0.1-0.5-0.1-0.5l0.8-0.5l-7.5-9.9L90.5,58l0.8-0.4c0.1,0,0.2,0.1,0.4,0.4
			c0.2,0.3,0.4,0.5,0.5,0.8c0.1,0.1,0.2,0.4,0.4,0.7c0.2,0.3,0.2,0.6,0.1,0.6l-2.5,1.5c-0.1,0-0.2-0.1-0.4-0.3
			c-0.2-0.2-0.4-0.6-0.5-0.9c-0.1-0.1-0.2-0.4-0.4-0.7s-0.2-0.6-0.1-0.6l1.3-0.7l-5-13.5L74.3,30.7l-1.2,0.7c-0.1,0-0.2,0-0.4-0.3
			c-0.2-0.3-0.4-0.6-0.5-0.8C72,30,72,29.9,71.8,29.6c-0.2-0.3-0.2-0.6-0.1-0.6l3.6-2.1c0.1-0.1,0.2,0.1,0.4,0.3
			c0.2,0.2,0.3,0.5,0.5,0.8c0.1,0.2,0.2,0.4,0.4,0.8c0.2,0.4,0.2,0.5,0.1,0.6l-0.8,0.5l7.1,9.3l-4-11l-0.8,0.5
			c-0.1,0-0.2-0.1-0.4-0.3c-0.2-0.2-0.4-0.6-0.5-0.8C77,27.1,77,27,76.8,26.7c-0.2-0.3-0.2-0.5-0.1-0.6l2.6-1.5
			c0.1,0,0.2,0.1,0.4,0.3c0.2,0.3,0.4,0.5,0.6,0.8c0.1,0.1,0.2,0.4,0.4,0.7c0.2,0.3,0.2,0.6,0.1,0.6L79.4,27.8"/>
		<path id="path3027" d="M84.7,24.8l15.8,27.5l1.3-0.8c0.1,0,0.2,0.1,0.4,0.3c0.2,0.3,0.4,0.5,0.5,0.8c0.1,0.2,0.3,0.5,0.4,0.8
			c0.1,0.3,0.2,0.5,0.1,0.6l-3.9,2.3c-0.1,0-0.2-0.1-0.4-0.3s-0.4-0.6-0.6-0.9c-0.2-0.3-0.2-0.4-0.4-0.7c-0.1-0.3-0.1-0.5-0.1-0.5
			l1.3-0.7L83.4,25.5l-1.3,0.7c-0.1,0-0.2,0-0.4-0.3c-0.2-0.3-0.4-0.6-0.5-0.9c-0.2-0.3-0.2-0.3-0.3-0.6c-0.1-0.3-0.2-0.7-0.2-0.7
			l3.9-2.2c0.1-0.1,0.2,0.1,0.4,0.4c0.2,0.2,0.3,0.5,0.5,0.7l0.4,0.7c0.2,0.3,0.2,0.5,0.1,0.6L84.7,24.8"/>
	</g>
	<g id="text2469">
		<path id="path3030" d="M29.9,77.4l10.6,8.8l17,7l0.8-1.3c0-0.1,0.2,0,0.5,0.1c0.3,0.1,0.6,0.3,0.9,0.4l0.7,0.4
			c0.3,0.2,0.5,0.4,0.4,0.5l-2.1,3.6c0,0.1-0.2,0-0.5-0.1c-0.3-0.1-0.6-0.3-1-0.5l-0.7-0.4c-0.2-0.2-0.4-0.3-0.3-0.4l0.5-0.8
			l-11.4-4.7l9.6,8l0.4-0.8c0-0.1,0.2,0,0.5,0.1c0.3,0.1,0.6,0.3,0.9,0.4c0.1,0.1,0.4,0.2,0.7,0.4s0.5,0.4,0.4,0.5l-1.5,2.5
			c0,0.1-0.2,0.1-0.5-0.1c-0.3-0.1-0.6-0.3-0.9-0.5c-0.1-0.1-0.4-0.2-0.7-0.4c-0.3-0.2-0.5-0.4-0.4-0.5l0.7-1.3l-11.1-9.2L27,82.4
			l-0.7,1.2c0,0.1-0.2,0.1-0.5-0.1c-0.3-0.1-0.6-0.3-0.9-0.5l-0.7-0.4c-0.3-0.2-0.5-0.4-0.4-0.5l2.1-3.6c0-0.1,0.2,0,0.5,0.1
			c0.3,0.1,0.5,0.3,0.8,0.4l0.8,0.5c0.3,0.2,0.4,0.4,0.4,0.5l-0.5,0.8l10.8,4.5l-9-7.5l-0.5,0.8c-0.1,0.1-0.2,0-0.5-0.1
			c-0.3-0.1-0.6-0.3-0.9-0.5l-0.7-0.4c-0.3-0.2-0.5-0.4-0.4-0.5l1.5-2.6c0-0.1,0.2,0,0.5,0.1c0.3,0.1,0.6,0.3,0.8,0.4
			c0.1,0.1,0.4,0.2,0.7,0.4c0.3,0.2,0.5,0.4,0.4,0.5L29.9,77.4"/>
	</g>
	<g id="text2475">
		<path id="path3033" d="M9.3,154.5l31.8,0.1v-1.5c0-0.1,0.2-0.2,0.5-0.2c0.3,0,0.6,0,1,0c0.2,0,0.5,0,0.8,0.1
			c0.3,0.1,0.5,0.1,0.6,0.2v4.5c0,0.1-0.2,0.2-0.5,0.2c-0.3,0-0.7,0-1.1,0h-0.8c-0.3,0-0.5-0.1-0.5-0.2v-1.5l-31.8-0.1v1.5
			c0,0.1-0.1,0.2-0.4,0.2c-0.3,0-0.7,0-1.1,0H7.1c-0.5,0-0.7-0.1-0.7-0.2v-4.5c0-0.1,0.2-0.1,0.6-0.2c0.3-0.1,0.6-0.1,0.9-0.1h0.8
			c0.4,0,0.6,0.1,0.6,0.2L9.3,154.5"/>
		<path id="path3035" d="M9.3,144.2l13.6,2.3l18.2-2.4v-1.5c0-0.1,0.2-0.1,0.5-0.2c0.3,0,0.6-0.1,1-0.1h0.8c0.4,0,0.6,0.1,0.6,0.2
			v4.2c0,0.1-0.2,0.2-0.5,0.2c-0.3,0-0.7,0-1.1,0h-0.8c-0.3,0-0.5-0.1-0.5-0.2v-0.9l-12.3,1.6l12.2,2.1v-0.9c0-0.1,0.2-0.1,0.5-0.2
			c0.3,0,0.6,0,1,0c0.1,0,0.4,0,0.8,0s0.6,0.1,0.6,0.2v2.9c0,0.1-0.1,0.1-0.5,0.2c-0.4,0-0.7,0-1.1,0c-0.1,0-0.4,0-0.8,0
			s-0.6-0.1-0.6-0.2v-1.5l-14.2-2.5l-17.5,2.3v1.4c0,0.1-0.1,0.1-0.4,0.2c-0.4,0-0.7,0-1.1,0c-0.1,0-0.4,0-0.8,0
			c-0.4,0-0.6-0.1-0.6-0.2v-4.1c0-0.1,0.2-0.2,0.5-0.2c0.3,0,0.6,0,0.9,0c0.2,0,0.5,0,0.9,0s0.6,0.1,0.6,0.2v0.9l11.6-1.5l-11.5-2
			v0.9c0,0.1-0.1,0.2-0.5,0.2c-0.3,0-0.7,0.1-1.1,0.1H7c-0.4,0-0.6-0.1-0.6-0.2v-3c0-0.1,0.2-0.1,0.5-0.2c0.3,0,0.6-0.1,1-0.1
			c0.1,0,0.4,0,0.8,0c0.4,0,0.6,0.1,0.6,0.2L9.3,144.2"/>
	</g>
	<g id="text2487">
		<path id="path3081" d="M221.3,28.3l-15.8,27.6l1.3,0.7c0.1,0,0.1,0.2-0.1,0.5c-0.1,0.3-0.3,0.6-0.4,0.8c-0.1,0.2-0.3,0.5-0.5,0.7
			c-0.2,0.3-0.3,0.4-0.4,0.4l-3.9-2.2c-0.1,0-0.1-0.2,0.1-0.5c0.1-0.3,0.3-0.6,0.5-1l0.4-0.7c0.2-0.2,0.3-0.4,0.4-0.3l1.3,0.7
			L220,27.5l-1.3-0.8c-0.1,0-0.1-0.2,0.1-0.5c0.1-0.3,0.3-0.6,0.5-0.9c0.1-0.1,0.2-0.3,0.4-0.6c0.2-0.2,0.5-0.5,0.6-0.5l3.9,2.2
			c0.1,0,0,0.2-0.1,0.6c-0.1,0.3-0.2,0.6-0.4,0.8c-0.1,0.1-0.2,0.4-0.4,0.7c-0.2,0.3-0.4,0.5-0.5,0.4L221.3,28.3"/>
	</g>
	<g id="text2491">
		<path id="path3076" d="M270.7,78l-27.6,15.8l0.7,1.3c0,0.1-0.1,0.2-0.3,0.4c-0.3,0.2-0.5,0.3-0.8,0.5c-0.3,0.2-0.4,0.2-0.8,0.4
			s-0.5,0.2-0.6,0.1l-2.2-3.9c0-0.1,0.1-0.2,0.3-0.4c0.3-0.2,0.6-0.4,0.9-0.6c0.2-0.1,0.4-0.2,0.7-0.4s0.5-0.1,0.6-0.1l0.7,1.3
			L270,76.6l-0.7-1.3c-0.1-0.1,0-0.2,0.3-0.4c0.3-0.2,0.6-0.4,0.9-0.5c0.3-0.2,0.3-0.2,0.6-0.3c0.3-0.1,0.7-0.2,0.7-0.2l2.2,3.9
			c0,0.1-0.1,0.2-0.4,0.4c-0.2,0.2-0.5,0.4-0.7,0.5l-0.7,0.4c-0.3,0.2-0.6,0.2-0.6,0.1L270.7,78"/>
		<path id="path3078" d="M273.6,83.1L246.1,99l0.8,1.3c0.1,0.1-0.1,0.2-0.3,0.4c-0.3,0.2-0.5,0.3-0.8,0.5s-0.5,0.2-0.8,0.4
			s-0.5,0.2-0.6,0.1l-2.2-3.9c0-0.1,0.1-0.2,0.3-0.4c0.3-0.2,0.6-0.4,0.9-0.6l0.7-0.4c0.3-0.1,0.5-0.1,0.5-0.1l0.7,1.3l27.6-15.8
			l-0.8-1.3c0-0.1,0-0.2,0.3-0.4c0.3-0.2,0.6-0.4,0.9-0.5l0.6-0.3c0.4-0.2,0.7-0.2,0.7-0.2l2.2,3.9c0,0.1-0.1,0.2-0.4,0.4
			c-0.2,0.2-0.5,0.3-0.8,0.5l-0.7,0.4c-0.3,0.2-0.5,0.2-0.6,0.1L273.6,83.1"/>
	</g>
	<g id="text2495">
		<path id="path3069" d="M289.5,145l-31.8,0.1v1.5c0,0.1-0.2,0.2-0.5,0.2s-0.6,0-1,0s-0.5,0-0.8,0s-0.5-0.1-0.6-0.2v-4.5
			c0-0.1,0.2-0.1,0.5-0.2c0.3-0.1,0.7-0.1,1.1-0.1h0.8c0.3,0,0.5,0.1,0.5,0.2v1.5l31.8-0.1v-1.5c0-0.1,0.1-0.2,0.4-0.2s0.7,0,1.1,0
			h0.7c0.5,0.1,0.7,0.1,0.7,0.2v4.5c0,0.1-0.2,0.2-0.6,0.2c-0.3,0-0.6,0.1-0.9,0.1c-0.1,0-0.4,0-0.8,0c-0.4,0-0.6-0.1-0.6-0.2
			L289.5,145"/>
		<path id="path3071" d="M289.5,151l-31.8,0.1v1.5c0,0.1-0.2,0.2-0.5,0.2c-0.3,0-0.6,0-1,0c-0.2,0-0.5,0-0.8,0
			c-0.3,0-0.5-0.1-0.6-0.2v-4.5c0-0.1,0.2-0.2,0.5-0.2c0.4,0,0.7-0.1,1.1-0.1h0.8c0.3,0,0.5,0.1,0.5,0.2v1.5l31.8-0.1v-1.5
			c0-0.1,0.1-0.2,0.4-0.2s0.7,0,1,0c0.2,0,0.5,0,0.7,0c0.4,0.1,0.7,0.1,0.7,0.2v4.5c0,0.1-0.2,0.1-0.6,0.2c-0.3,0-0.6,0.1-0.9,0.1
			h-0.8c-0.4,0-0.6-0.1-0.6-0.2L289.5,151"/>
		<path id="path3073" d="M289.6,156.9l-31.8,0.1v1.5c0,0.1-0.2,0.2-0.5,0.2c-0.3,0-0.6,0-1,0c-0.3,0-0.6,0-0.8-0.1
			c-0.3,0-0.5-0.1-0.6-0.2v-4.5c0-0.1,0.2-0.2,0.5-0.2s0.7,0,1.1,0c0.4,0,0.5,0,0.8,0c0.3,0,0.5,0.1,0.5,0.2v1.5l31.8-0.1v-1.5
			c0-0.1,0.1-0.2,0.5-0.2c0.3,0,0.7,0,1,0h0.7c0.4,0,0.7,0.1,0.7,0.2v4.5c0,0.1-0.2,0.1-0.6,0.2c-0.3,0-0.6,0.1-0.9,0.1h-0.8
			c-0.4,0-0.6-0.1-0.6-0.2L289.6,156.9"/>
	</g>
	<g id="text2499">
		<path id="path3060" d="M275.6,213.1L248,197.4l-0.7,1.3c0,0.1-0.2,0.1-0.5-0.1c-0.3-0.1-0.6-0.3-0.8-0.4c-0.2-0.1-0.5-0.3-0.7-0.5
			c-0.3-0.2-0.4-0.3-0.4-0.4l2.2-3.9c0-0.1,0.2-0.1,0.5,0.1c0.3,0.1,0.6,0.3,1,0.5c0.2,0.1,0.4,0.2,0.7,0.4c0.2,0.2,0.4,0.3,0.3,0.4
			l-0.7,1.3l27.6,15.7l0.7-1.3c0.1-0.1,0.2-0.1,0.5,0c0.3,0.1,0.6,0.3,0.9,0.5l0.6,0.4c0.4,0.3,0.5,0.5,0.5,0.6l-2.2,3.9
			c0,0.1-0.2,0-0.6-0.1c-0.3-0.1-0.6-0.2-0.8-0.4l-0.7-0.4c-0.3-0.2-0.5-0.4-0.4-0.5L275.6,213.1"/>
		<path id="path3062" d="M272.6,218.3l-27.6-15.7l-0.8,1.3c0,0.1-0.2,0.1-0.5-0.1c-0.3-0.1-0.6-0.3-0.9-0.4s-0.4-0.3-0.7-0.5
			s-0.4-0.3-0.4-0.5l2.2-3.9c0-0.1,0.2-0.1,0.5,0.1c0.3,0.1,0.6,0.3,1,0.5l0.7,0.4c0.2,0.2,0.4,0.3,0.3,0.4l-0.7,1.3l27.6,15.7
			l0.7-1.3c0-0.1,0.2-0.1,0.5,0c0.3,0.1,0.6,0.3,0.9,0.5c0.3,0.2,0.3,0.2,0.6,0.4c0.2,0.2,0.5,0.5,0.5,0.6l-2.3,4
			c-0.1,0.1-0.2,0-0.6-0.1c-0.3-0.1-0.6-0.2-0.8-0.4c-0.1-0.1-0.4-0.2-0.7-0.4c-0.3-0.2-0.5-0.4-0.4-0.5L272.6,218.3"/>
		<path id="path3064" d="M269.7,223.4l-27.6-15.7l-0.8,1.3c0,0.1-0.2,0.1-0.5-0.1c-0.3-0.1-0.6-0.3-0.8-0.4
			c-0.2-0.1-0.5-0.3-0.7-0.5c-0.3-0.2-0.4-0.3-0.4-0.5l2.2-3.9c0-0.1,0.2-0.1,0.5,0.1c0.3,0.1,0.6,0.3,1,0.5l0.7,0.4
			c0.3,0.2,0.4,0.3,0.3,0.4l-0.7,1.3l27.6,15.7l0.7-1.3c0.1-0.1,0.2-0.1,0.5,0s0.6,0.3,0.9,0.5c0.3,0.2,0.3,0.2,0.6,0.4
			c0.2,0.2,0.5,0.5,0.5,0.6l-2.2,3.9c0,0.1-0.2,0-0.6-0.1c-0.3-0.1-0.6-0.2-0.8-0.4c-0.1-0.1-0.4-0.2-0.7-0.4s-0.5-0.4-0.4-0.5
			L269.7,223.4"/>
		<path id="path3066" d="M266.7,228.6l-27.6-15.7l-0.7,1.3c-0.1,0.1-0.2,0.1-0.5-0.1c-0.3-0.1-0.6-0.3-0.8-0.4
			c-0.3-0.2-0.4-0.3-0.7-0.5c-0.3-0.2-0.4-0.3-0.4-0.5l2.2-3.9c0-0.1,0.2,0,0.5,0.1c0.3,0.1,0.6,0.3,1,0.5c0.2,0.1,0.5,0.3,0.7,0.4
			c0.3,0.2,0.4,0.3,0.3,0.4l-0.7,1.3l27.6,15.7l0.7-1.3c0-0.1,0.2-0.1,0.5,0c0.3,0.1,0.6,0.3,0.9,0.5l0.6,0.4
			c0.4,0.3,0.5,0.5,0.5,0.6l-2.2,3.9c0,0.1-0.2,0-0.6-0.1c-0.3-0.1-0.6-0.2-0.8-0.4c-0.1-0.1-0.4-0.2-0.7-0.4
			c-0.3-0.2-0.5-0.4-0.4-0.5L266.7,228.6"/>
	</g>
	<g id="text2503">
		<path id="path3057" d="M217.2,272.4l-14.4-31.6l0.6-0.4l19.7,28.6l1.3-0.7c0.1,0,0.2,0.1,0.4,0.3c0.2,0.2,0.4,0.6,0.5,0.8
			c0.2,0.3,0.2,0.4,0.4,0.7c0.2,0.3,0.2,0.6,0.1,0.6l-3.5,2c-0.1,0-0.2-0.1-0.4-0.4c-0.2-0.2-0.4-0.5-0.5-0.8
			c-0.1-0.1-0.2-0.4-0.4-0.7c-0.2-0.3-0.2-0.6-0.1-0.6l0.8-0.5l-15-21.8l11,24.1l0.8-0.5c0.1,0,0.2,0,0.4,0.3
			c0.2,0.3,0.4,0.6,0.5,0.9c0.1,0.1,0.2,0.3,0.3,0.6c0.1,0.3,0.2,0.7,0.2,0.8l-2.1,1.2c-0.1,0-0.2-0.1-0.4-0.4
			c-0.2-0.3-0.4-0.5-0.5-0.8l-0.4-0.7c-0.2-0.3-0.2-0.6-0.1-0.6L217.2,272.4"/>
	</g>
	<g id="text2507">
		<path id="path3052" d="M149.1,290.1l3.3-34.6h0.7l2.7,34.6h1.5c0.1,0,0.1,0.1,0.2,0.4c0,0.3,0.1,0.7,0.1,1.1c0,0.1,0,0.4-0.1,0.8
			s-0.1,0.6-0.2,0.6h-4c-0.1,0-0.2-0.2-0.2-0.6c0-0.3-0.1-0.6-0.1-0.9c0-0.1,0-0.4,0-0.8s0.1-0.6,0.2-0.6h0.9l-2.1-26.4l-2.5,26.4h1
			c0.1,0,0.2,0.1,0.2,0.4c0,0.3,0,0.7,0,1c0,0.1,0,0.4,0,0.7c0,0.3-0.1,0.7-0.2,0.7h-2.4c-0.1,0-0.1-0.2-0.2-0.5
			c0-0.3-0.1-0.6-0.1-1c0-0.1,0-0.4,0-0.8c0-0.4,0.1-0.6,0.2-0.6L149.1,290.1"/>
		<path id="path3054" d="M144.1,290.1l0.1-31.8h-1.5c-0.1,0-0.2-0.2-0.2-0.5c0-0.3,0-0.6,0-1c0-0.3,0-0.5,0-0.8
			c0-0.3,0.1-0.5,0.2-0.6h4.5c0.1,0,0.2,0.2,0.2,0.5c0,0.3,0,0.7,0,1.1s0,0.5,0,0.8s-0.1,0.5-0.2,0.5h-1.4l-0.1,31.8h1.5
			c0.1,0,0.2,0.2,0.2,0.5c0,0.3,0,0.7,0,1.1c0,0.1,0,0.4,0,0.7c0,0.3-0.1,0.7-0.2,0.7h-4.5c-0.1,0-0.1-0.2-0.2-0.6
			c-0.1-0.3-0.1-0.6-0.1-0.9c0-0.1,0-0.4,0-0.8c0-0.4,0.1-0.6,0.2-0.6L144.1,290.1"/>
	</g>
	<g id="text2511">
		<path id="path3045" d="M81.9,272.4l20.2-28.3l0.6,0.4l-14.9,31.4l1.3,0.8c0.1,0,0,0.2-0.1,0.5c-0.1,0.3-0.3,0.6-0.5,0.9
			c-0.1,0.1-0.2,0.4-0.4,0.7c-0.2,0.3-0.4,0.5-0.5,0.4l-3.5-2c-0.1,0,0-0.2,0.1-0.6c0.1-0.3,0.2-0.5,0.4-0.8
			c0.1-0.1,0.2-0.4,0.4-0.7c0.2-0.3,0.4-0.5,0.5-0.4l0.8,0.5L97.8,251l-15.4,21.6l0.8,0.5c0.1,0.1,0.1,0.2,0,0.5
			c-0.1,0.3-0.3,0.6-0.5,0.9c-0.2,0.3-0.2,0.3-0.4,0.6c-0.2,0.2-0.5,0.5-0.6,0.5l-2.1-1.2c-0.1,0,0-0.2,0.1-0.5
			c0.1-0.3,0.3-0.6,0.5-0.9c0.1-0.1,0.2-0.4,0.4-0.7c0.2-0.3,0.4-0.5,0.5-0.4L81.9,272.4"/>
		<path id="path3047" d="M77.6,269.8l16-27.4l-1.3-0.8c-0.1-0.1-0.1-0.2,0.1-0.5s0.3-0.6,0.4-0.8c0.2-0.3,0.3-0.4,0.5-0.7
			s0.4-0.4,0.5-0.4l3.9,2.3c0.1,0,0,0.2-0.1,0.5c-0.1,0.3-0.3,0.6-0.5,0.9c-0.1,0.2-0.3,0.5-0.4,0.7c-0.2,0.2-0.3,0.4-0.4,0.3
			l-1.3-0.7l-16,27.4l1.3,0.8c0.1,0,0.1,0.2-0.1,0.5c-0.1,0.3-0.3,0.6-0.5,0.9l-0.4,0.6c-0.3,0.4-0.5,0.5-0.6,0.5l-3.9-2.3
			c-0.1,0,0-0.2,0.1-0.6c0.1-0.3,0.2-0.5,0.4-0.8c0.1-0.1,0.2-0.4,0.4-0.7s0.4-0.5,0.5-0.4L77.6,269.8"/>
		<path id="path3049" d="M72.4,266.9l16-27.4l-1.3-0.8c-0.1-0.1-0.1-0.2,0.1-0.5s0.3-0.6,0.4-0.8c0.1-0.2,0.3-0.5,0.5-0.7
			c0.2-0.3,0.4-0.4,0.5-0.4l3.9,2.3c0.1,0.1,0,0.2-0.1,0.5c-0.1,0.3-0.3,0.6-0.5,1c-0.1,0.2-0.3,0.4-0.4,0.7s-0.3,0.4-0.4,0.3
			l-1.3-0.7l-16,27.5l1.3,0.8c0.1,0.1,0.1,0.2,0,0.5c-0.1,0.3-0.3,0.6-0.5,0.9l-0.4,0.6c-0.3,0.4-0.5,0.5-0.6,0.5l-3.9-2.3
			c-0.1,0,0-0.2,0.1-0.6c0.1-0.3,0.2-0.6,0.4-0.8c0.1-0.1,0.2-0.4,0.4-0.7s0.4-0.5,0.5-0.4L72.4,266.9"/>
	</g>
	<g id="text2515">
		<path id="path3038" d="M30.7,221.3l31.6-14.4l0.4,0.6L34,227.2l0.8,1.3c0,0.1-0.1,0.2-0.3,0.4c-0.3,0.2-0.6,0.4-0.8,0.5
			c-0.1,0.1-0.4,0.2-0.7,0.4c-0.3,0.2-0.6,0.2-0.6,0.1l-1.9-3.5c-0.1-0.1,0.1-0.2,0.4-0.4c0.2-0.2,0.5-0.3,0.7-0.5l0.7-0.4
			c0.3-0.2,0.5-0.2,0.6-0.1l0.5,0.8l21.9-15l-24.2,11l0.5,0.8c0,0.1-0.1,0.2-0.3,0.4c-0.2,0.2-0.6,0.4-0.9,0.5l-0.6,0.3
			c-0.4,0.2-0.7,0.2-0.7,0.2l-1.2-2.1c0-0.1,0.1-0.2,0.4-0.4c0.3-0.2,0.5-0.4,0.8-0.5c0.1-0.1,0.4-0.2,0.7-0.4
			c0.3-0.2,0.6-0.2,0.6-0.1L30.7,221.3"/>
		<path id="path3040" d="M28.2,217l27.6-15.8l-0.8-1.3c-0.1-0.1,0.1-0.2,0.3-0.4c0.3-0.2,0.5-0.4,0.8-0.5c0.2-0.1,0.5-0.3,0.8-0.4
			c0.3-0.1,0.5-0.2,0.6-0.1l2.2,3.9c0,0.1-0.1,0.2-0.3,0.4c-0.3,0.2-0.6,0.4-0.9,0.6c-0.2,0.1-0.4,0.2-0.7,0.4
			c-0.3,0.1-0.5,0.1-0.5,0.1l-0.7-1.3L29,218.3l0.7,1.3c0.1,0.1,0,0.2-0.3,0.4s-0.6,0.4-0.9,0.5l-0.6,0.3c-0.4,0.2-0.7,0.2-0.8,0.2
			l-2.2-3.9c0-0.1,0.1-0.2,0.4-0.4c0.2-0.2,0.5-0.4,0.8-0.5l0.7-0.4c0.3-0.2,0.5-0.2,0.6-0.1L28.2,217"/>
		<path id="path3042" d="M25.2,211.8L52.8,196l-0.7-1.3c-0.1-0.1,0-0.2,0.3-0.4s0.5-0.3,0.8-0.5c0.2-0.1,0.5-0.3,0.8-0.4
			c0.3-0.1,0.5-0.2,0.6-0.1l2.2,3.9c0,0.1-0.1,0.2-0.3,0.4c-0.3,0.2-0.6,0.4-0.9,0.6c-0.2,0.1-0.4,0.2-0.7,0.4
			c-0.3,0.1-0.5,0.1-0.6,0.1l-0.7-1.3L26,213.1l0.7,1.3c0,0.1-0.1,0.2-0.3,0.4s-0.6,0.4-0.8,0.5l-0.6,0.3c-0.4,0.2-0.7,0.2-0.7,0.2
			l-2.2-3.9c0-0.1,0.1-0.2,0.4-0.4c0.2-0.2,0.5-0.4,0.7-0.5c0.1-0.1,0.4-0.2,0.7-0.4c0.3-0.2,0.6-0.2,0.6-0.1L25.2,211.8"/>
	</g>
</g>
<g id="layer2">
	<path id="path2522" class="st1" d="M202.8,220.2c0,29.2-23.6,52.8-52.8,52.8s-52.8-23.6-52.8-52.8s23.6-52.8,52.8-52.8c0,0,0,0,0,0
		C179.2,167.5,202.8,191.1,202.8,220.2C202.8,220.2,202.8,220.2,202.8,220.2z"/>
	<path id="path2526" d="M150.6,168.4c0,0.3-0.2,0.6-0.6,0.6c0,0,0,0,0,0c-0.3,0-0.6-0.2-0.6-0.5c0,0,0,0,0,0c0-0.3,0.3-0.6,0.6-0.6
		C150.4,167.8,150.6,168.1,150.6,168.4C150.6,168.4,150.6,168.4,150.6,168.4z"/>
	<g id="use2530">
		<path id="path3171-13" d="M195.6,194.3c0,0.3-0.3,0.6-0.6,0.6c-0.3,0-0.6-0.2-0.6-0.6c0,0,0,0,0,0c0-0.3,0.2-0.6,0.6-0.6
			c0,0,0,0,0,0C195.3,193.7,195.6,194,195.6,194.3C195.6,194.3,195.6,194.3,195.6,194.3z"/>
	</g>
	<g id="use2534">
		<path id="path3171-14" d="M195.5,246.1c0,0.3-0.3,0.6-0.6,0.6c-0.3,0-0.6-0.2-0.6-0.6c0,0,0,0,0,0c0-0.3,0.2-0.6,0.6-0.6
			c0,0,0,0,0,0C195.2,245.6,195.5,245.8,195.5,246.1C195.5,246.1,195.5,246.1,195.5,246.1z"/>
	</g>
	<g id="use2538">
		<path id="path3171-15" d="M150.6,272c0,0.3-0.3,0.6-0.6,0.6c-0.3,0-0.6-0.2-0.6-0.6c0,0,0,0,0,0c0-0.3,0.2-0.6,0.6-0.6
			c0,0,0,0,0,0C150.4,271.4,150.6,271.7,150.6,272C150.6,272,150.6,272,150.6,272z"/>
	</g>
	<g id="use2542">
		<path id="path3171-16" d="M105.8,194.3c0,0.3-0.3,0.6-0.6,0.6c-0.3,0-0.6-0.2-0.6-0.6c0,0,0,0,0,0c0-0.3,0.2-0.6,0.6-0.6l0,0
			C105.5,193.8,105.8,194,105.8,194.3C105.8,194.3,105.8,194.3,105.8,194.3z"/>
	</g>
	<g id="use2546">
		<path id="path3171-17" d="M105.8,246.1c0,0.3-0.3,0.6-0.6,0.6c-0.3,0-0.6-0.2-0.6-0.6c0,0,0,0,0,0c0-0.3,0.2-0.6,0.6-0.6l0,0
			C105.6,245.5,105.8,245.8,105.8,246.1C105.8,246.1,105.8,246.1,105.8,246.1z"/>
	</g>
	<path id="path2554" class="st2" d="M202.5,214.7l-1.8,0.2"/>
	<path id="path2556" class="st2" d="M201.7,209.3l-1.8,0.4"/>
	<path id="path2558" class="st2" d="M200.3,203.9l-1.8,0.6"/>
	<path id="path2560" class="st2" d="M198.3,198.8l-1.7,0.8"/>
	<path id="path2564" class="st2" d="M192.7,189.2l-1.5,1.1"/>
	<path id="path2566" class="st2" d="M189.3,184.9l-1.4,1.2"/>
	<path id="path2568" class="st2" d="M185.4,181l-1.2,1.4"/>
	<path id="path2570" class="st2" d="M181.1,177.5L180,179"/>
	<path id="path2574" class="st2" d="M171.6,172l-0.8,1.7"/>
	<path id="path2576" class="st2" d="M166.4,170.1l-0.6,1.8"/>
	<path id="path2578" class="st2" d="M161.1,168.6l-0.4,1.8"/>
	<path id="path2580" class="st2" d="M155.6,167.7l-0.2,1.8"/>
	<path id="path2584" class="st2" d="M198.3,241.7l-1.7-0.8"/>
	<path id="path2586" class="st2" d="M200.3,236.6l-1.8-0.6"/>
	<path id="path2588" class="st2" d="M201.7,231.2l-1.8-0.4"/>
	<path id="path2590" class="st2" d="M202.5,225.8l-1.8-0.2"/>
	<path id="path2594" class="st2" d="M181.1,263l-1.1-1.5"/>
	<path id="path2596" class="st2" d="M185.4,259.5l-1.2-1.4"/>
	<path id="path2598" class="st2" d="M189.3,255.6l-1.4-1.3"/>
	<path id="path2600" class="st2" d="M192.7,251.3l-1.5-1.1"/>
	<path id="path2604" class="st2" d="M155.6,272.7l-0.2-1.9"/>
	<path id="path2606" class="st2" d="M161.1,271.9l-0.4-1.8"/>
	<path id="path2608" class="st2" d="M166.4,270.4l-0.6-1.8"/>
	<path id="path2610" class="st2" d="M171.5,268.5l-0.8-1.7"/>
	<path id="path2616" class="st2" d="M97.5,225.7l1.9-0.2"/>
	<path id="path2618" class="st2" d="M98.4,231.2l1.8-0.4"/>
	<path id="path2620" class="st2" d="M99.8,236.5l1.8-0.6"/>
	<path id="path2622" class="st2" d="M101.8,241.7l1.7-0.8"/>
	<path id="path2626" class="st2" d="M107.3,251.2l1.5-1.1"/>
	<path id="path2628" class="st2" d="M110.8,255.5l1.4-1.2"/>
	<path id="path2630" class="st2" d="M114.7,259.4l1.3-1.4"/>
	<path id="path2632" class="st2" d="M119,262.9l1.1-1.5"/>
	<path id="path2636" class="st2" d="M128.5,268.4l0.8-1.7"/>
	<path id="path2638" class="st2" d="M133.6,270.4l0.6-1.8"/>
	<path id="path2640" class="st2" d="M139,271.9l0.4-1.8"/>
	<path id="path2642" class="st2" d="M144.4,272.7l0.2-1.9"/>
	<path id="path2646" class="st2" d="M101.9,198.7l1.7,0.8"/>
	<path id="path2648" class="st2" d="M99.9,203.9l1.8,0.6"/>
	<path id="path2650" class="st2" d="M98.4,209.2l1.8,0.4"/>
	<path id="path2652" class="st2" d="M97.6,214.7l1.9,0.2"/>
	<path id="path2656" class="st2" d="M119.1,177.5l1.1,1.5"/>
	<path id="path2658" class="st2" d="M114.8,181l1.3,1.4"/>
	<path id="path2660" class="st2" d="M110.9,184.9l1.4,1.2"/>
	<path id="path2662" class="st2" d="M107.4,189.2l1.5,1.1"/>
	<g id="text3603">
		<path id="path3116" d="M148.7,176.3c0-0.5-0.1-1-0.3-1.5c-0.3-0.6-1-0.7-1.6-0.4c-0.2,0.1-0.3,0.2-0.4,0.4
			c-0.2,0.4-0.4,0.9-0.3,1.4c0,0.5,0.1,0.9,0.4,1.3c0.4,0.5,1.2,0.7,1.7,0.3c0.1-0.1,0.2-0.2,0.3-0.3
			C148.6,177.2,148.7,176.7,148.7,176.3 M149.6,176.3c0,0.4-0.1,0.9-0.3,1.3c-0.2,0.4-0.5,0.7-0.9,0.9c-0.3,0.2-0.7,0.3-1.2,0.3
			c-0.4,0-0.8-0.1-1.2-0.3c-0.4-0.2-0.7-0.5-0.9-0.9c-0.2-0.4-0.3-0.8-0.3-1.3c0-0.6,0.1-1.2,0.3-1.7c0.2-0.5,0.5-1,0.8-1.5
			c0.3-0.4,0.6-0.7,0.9-1.1l0.8-0.8c0.6-0.4,0.9-0.7,1.1-0.8c0.1-0.1,0.2-0.2,0.4-0.2c0.1,0,0.2,0,0.2,0.1c0,0.1,0.1,0.1,0.1,0.2
			c0,0.1,0,0.2-0.1,0.2c-0.2,0.2-0.4,0.3-0.6,0.5l-1,0.8c-0.7,0.6-1.2,1.3-1.7,2c0.3-0.2,0.7-0.3,1.1-0.3c0.4,0,0.8,0.1,1.1,0.3
			c0.4,0.2,0.7,0.5,0.9,0.9C149.5,175.4,149.7,175.8,149.6,176.3"/>
		<path id="path3118" d="M152.9,173.9c0.4,0,0.7,0.1,1.1,0.3c0.4,0.2,0.6,0.5,0.8,0.9c0.2,0.4,0.3,0.8,0.3,1.2
			c0,0.4-0.1,0.8-0.3,1.2c-0.2,0.4-0.5,0.7-0.8,0.9c-0.3,0.2-0.7,0.3-1.1,0.3c-0.6,0-1.2-0.3-1.6-0.7c-0.4-0.5-0.7-1.1-0.7-1.7
			c0-0.4,0.1-0.9,0.3-1.2c0.2-0.4,0.5-0.7,0.8-0.9C152,174,152.4,173.9,152.9,173.9 M152.8,174.4c-0.8,0-1.1,0.7-1.1,2
			c0,1.3,0.4,2,1.1,2c0.4,0,0.7-0.2,0.9-0.5c0.3-0.9,0.3-2,0-2.9C153.6,174.6,153.2,174.4,152.8,174.4"/>
	</g>
	<g id="text3607">
		<path id="path3111" d="M187.9,196l0.3,0.5c0,0.1,0,0.2,0,0.2c0,0.1-0.1,0.1-0.1,0.2l-0.2,0.1c-0.1,0-0.2,0-0.2-0.1l-1.2-2.1
			c0-0.1,0-0.1,0-0.2c0.1-0.1,0.1-0.1,0.2-0.1l0.1-0.1c0.1,0,0.2,0,0.3,0.1l0.3,0.5l3.2-1.8l-0.3-0.5c0-0.1,0-0.1,0-0.2
			c0-0.1,0.1-0.1,0.2-0.2c0.1,0,0.1,0,0.2-0.1c0.1,0,0.2,0,0.2,0.1l1.2,2.1c0.1,0.1,0.1,0.2,0,0.2c0,0.1-0.1,0.1-0.2,0.1
			c-0.1,0-0.1,0-0.2,0c-0.1,0-0.2,0-0.2-0.1l-0.3-0.5L187.9,196"/>
		<path id="path3113" d="M193.6,197.4c0.2,0.3,0.3,0.7,0.3,1.1c0,0.4-0.1,0.8-0.4,1.2c-0.2,0.4-0.5,0.7-0.9,0.9
			c-0.4,0.2-0.8,0.3-1.2,0.4c-0.4,0-0.8-0.1-1.2-0.3c-0.4-0.2-0.6-0.5-0.8-0.8c-0.3-0.5-0.4-1.2-0.2-1.7c0.2-0.6,0.6-1.1,1.2-1.4
			c0.4-0.2,0.8-0.3,1.2-0.4c0.4,0,0.8,0.1,1.2,0.3C193.1,196.8,193.4,197,193.6,197.4 M193.2,197.6c-0.4-0.7-1.1-0.7-2.3,0
			c-1.1,0.7-1.5,1.3-1.1,2c0.2,0.3,0.5,0.5,0.9,0.5c0.5-0.1,0.9-0.2,1.4-0.5c0.4-0.2,0.8-0.5,1.1-0.9
			C193.5,198.3,193.5,197.9,193.2,197.6"/>
	</g>
	<g id="text3611">
		<path id="path3106" d="M193.8,239.5c0.4,0.3,0.6,0.8,0.6,1.3c0.1,0.6,0,1.2-0.3,1.7c-0.2,0.4-0.6,0.8-1.1,1
			c-0.6,0.3-1.4,0.1-1.7-0.5c-0.1-0.1-0.1-0.2-0.1-0.4l-0.2-2.1l-0.6,1.1c-0.1,0.2-0.2,0.5-0.2,0.8c0.1,0.2,0.1,0.3,0,0.5
			c0,0.1-0.1,0.1-0.2,0.1c-0.1,0-0.2,0-0.3,0c-0.3-0.2-0.5-0.7-0.5-1.5l1.6-2.8c0.1-0.1,0.2-0.2,0.3-0.4c0.1-0.1,0.2-0.1,0.3,0
			c0.1,0,0.1,0.1,0.1,0.1l-0.1,0.4c-0.1,0.2-0.1,0.4-0.1,0.6l0.2,2c0.1,0.3,0.3,0.6,0.6,0.8c0.3,0.2,0.6,0.2,0.9,0.1
			c0.3,0,0.6-0.2,0.7-0.5c0.1-0.1,0.1-0.3,0.1-0.5c0-0.2-0.1-0.4-0.1-0.6l-0.2-0.5c0-0.2,0-0.4,0.1-0.5
			C193.5,239.6,193.7,239.5,193.8,239.5C193.8,239.6,193.8,239.6,193.8,239.5"/>
		<path id="path3108" d="M191.2,247.4c-0.2,0.3-0.5,0.6-0.8,0.8c-0.4,0.2-0.8,0.3-1.2,0.3c-0.4,0-0.9-0.1-1.2-0.4
			c-0.4-0.2-0.7-0.5-0.9-0.9c-0.2-0.3-0.4-0.8-0.4-1.2c0-0.4,0.1-0.8,0.3-1.1c0.3-0.5,0.8-0.9,1.4-1.1c0.6-0.1,1.3,0,1.8,0.3
			c0.4,0.2,0.7,0.5,0.9,0.9c0.2,0.4,0.3,0.8,0.4,1.2C191.5,246.6,191.4,247,191.2,247.4 M190.8,247.1c0.4-0.7,0-1.3-1.1-2
			c-1.1-0.7-1.9-0.7-2.3,0c-0.2,0.3-0.2,0.7,0,1.1c0.3,0.4,0.6,0.7,1.1,0.9c0.4,0.3,0.9,0.4,1.4,0.5
			C190.2,247.7,190.6,247.5,190.8,247.1"/>
	</g>
	<g id="text3615">
		<path id="path3101" d="M152,265.5c-0.2,0-0.4-0.1-0.5-0.1c-0.3,0-0.6-0.2-0.8-0.5c-0.1-0.3-0.1-0.7,0-1c0.3-0.8,0.7-1.5,1.3-2.1
			c0.3-0.2,0.7-0.4,1.1-0.5c0.4-0.2,0.8-0.2,1.2-0.2c0.2,0,0.4,0,0.6,0.1c0.3,0.1,0.6,0.3,0.8,0.5c0.2,0.2,0.2,0.4,0.1,0.7
			c-0.1,0.2-0.2,0.4-0.4,0.5c-0.2,0.1-0.4,0.1-0.5,0.1l-0.2-0.1c-0.1-0.1-0.3-0.3-0.3-0.4c-0.1-0.2-0.3-0.3-0.4-0.4
			c-0.2,0-0.4,0-0.6,0.2c-0.3,0.1-0.5,0.4-0.6,0.6c-0.1,0.2-0.2,0.4-0.3,0.7c0,0,0,0.1,0,0.2c0,0.1,0,0.3,0,0.4
			c0,0.2,0.1,0.4,0.2,0.5l0.7,0.2l1,0.2c0.2,0.1,0.3,0.1,0.3,0.2c0,0.1-0.1,0.2-0.3,0.2h-0.3l-0.3,0.1l-1.8,0.8
			c-0.3,0.1-0.5,0.4-0.6,0.7c-0.1,0.3,0.1,0.6,0.3,0.7c0.3,0.2,0.6,0.4,0.9,0.5c0.2,0,0.3,0,0.5,0h0.4h0.3c0.1,0,0.2,0.1,0.2,0.2
			c0,0.1-0.1,0.3-0.5,0.4l-0.9,0.1h-0.7h-0.5c-0.1,0-0.2,0-0.3,0c-0.2-0.1-0.4-0.1-0.5-0.3c-0.2-0.1-0.3-0.3-0.4-0.6
			c-0.1-0.2-0.1-0.4-0.2-0.5c0-0.1,0-0.3,0-0.4c0.1-0.3,0.3-0.6,0.6-0.8L152,265.5"/>
		<path id="path3103" d="M146.3,267.7c-0.4-0.1-0.7-0.3-1-0.6c-0.3-0.3-0.5-0.7-0.6-1.1c-0.1-0.4-0.1-0.9,0-1.3
			c0.1-0.4,0.3-0.8,0.6-1.1c0.3-0.3,0.7-0.6,1.1-0.7c0.4-0.1,0.8-0.1,1.2,0c0.6,0.1,1.1,0.5,1.3,1.1c0.3,0.6,0.4,1.2,0.2,1.8
			c-0.1,0.4-0.3,0.8-0.6,1.1c-0.3,0.3-0.7,0.5-1.1,0.7C147.1,267.7,146.7,267.7,146.3,267.7 M146.4,267.2c0.7,0.2,1.3-0.4,1.6-1.6
			c0.3-1.3,0.1-2-0.6-2.2c-0.4-0.1-0.8,0-1,0.3c-0.3,0.4-0.5,0.8-0.6,1.3c-0.1,0.5-0.2,1-0.1,1.5
			C145.8,266.8,146.1,267.1,146.4,267.2"/>
	</g>
	<g id="text3619">
		<path id="path3096" d="M112.4,244.3l-2,1.2l2.9,0.4L112.4,244.3 M115.5,241.3c0.1-0.1,0.3-0.1,0.4,0c0.1,0.1,0.2,0.2,0.3,0.3
			c0,0.1,0.1,0.2,0.1,0.4c0,0.1,0,0.3-0.2,0.4l-2.7,1.5l1.5,2.7l-0.4,0.2l-5.6-0.7l-0.4-0.7l3.3-1.9l-0.3-0.6
			c-0.1-0.1-0.3-0.3-0.4-0.3c-0.2-0.1-0.3-0.2-0.5-0.3c-0.1-0.1-0.1-0.2-0.1-0.3c0-0.1,0.1-0.2,0.2-0.3c0.3-0.2,0.8-0.1,1.6,0.3
			l0.5,0.9L115.5,241.3"/>
		<path id="path3098" d="M105.9,240.8c-0.2-0.3-0.3-0.7-0.3-1.1c0-0.4,0.1-0.8,0.4-1.2c0.5-0.7,1.3-1.2,2.1-1.2
			c0.4,0,0.8,0.1,1.2,0.2c0.4,0.2,0.6,0.5,0.8,0.8c0.3,0.5,0.4,1.2,0.2,1.7c-0.2,0.6-0.6,1.1-1.2,1.4c-0.4,0.2-0.8,0.3-1.2,0.4
			c-0.4,0-0.8-0.1-1.2-0.3C106.4,241.4,106.1,241.1,105.9,240.8 M106.4,240.5c0.4,0.7,1.1,0.6,2.3,0c1.1-0.6,1.5-1.3,1.1-2
			c-0.2-0.4-0.5-0.6-0.9-0.5c-0.5,0.1-0.9,0.2-1.3,0.5c-0.4,0.2-0.8,0.6-1.1,0.9C106.1,239.8,106.1,240.3,106.4,240.5"/>
	</g>
	<g id="text3623">
		<path id="path3091" d="M108.9,199.3l0.5-1.1c0-0.1,0.1-0.1,0.1-0.2c0.1-0.1,0.1-0.2,0.2-0.2l0.2-0.2c0.2-0.2,0.5-0.3,0.7-0.3
			c0.3,0.1,0.6,0.2,0.8,0.5c0.3,0.3,0.6,0.7,0.8,1.1c0.2,0.3,0.3,0.7,0.4,1.1c0.1,0.4,0.1,0.8,0,1.2c-0.1,0.4-0.2,0.8-0.4,1.1
			c-0.1,0.2-0.2,0.3-0.4,0.5c-0.2,0.2-0.4,0.3-0.7,0.4c-0.2,0-0.4,0-0.5,0c-0.1,0-0.2-0.1-0.3-0.2c-0.2-0.2-0.2-0.4-0.2-0.6
			c0-0.2,0.1-0.4,0.2-0.5c0.1-0.1,0.1-0.1,0.2-0.1c0.2-0.1,0.4-0.1,0.6-0.1c0.2,0,0.4-0.1,0.6-0.2c0.1-0.2,0.2-0.4,0.2-0.6
			c0-0.3-0.1-0.6-0.2-0.8c-0.1-0.2-0.3-0.4-0.4-0.6c-0.1-0.1-0.2-0.2-0.4-0.3c-0.2-0.2-0.5-0.2-0.7-0.1c-0.2,0.2-0.4,0.4-0.5,0.7
			c-0.2,0.3-0.3,0.5-0.5,0.8c-0.1,0.1-0.1,0.1-0.1,0.1l-1.4-2.6c-0.3-0.4-0.4-0.9-0.5-1.5c0-0.4,0.1-0.7,0.3-1.1l0.2-0.2
			c0.2-0.2,0.4-0.3,0.6-0.3c0.2-0.1,0.4,0,0.6,0.1c0.1,0.1,0.2,0.1,0.3,0.2c0.1,0.1,0.2,0.2,0.2,0.4c0,0.2,0,0.3-0.1,0.5
			c-0.2,0.2-0.4,0.3-0.6,0.3c-0.2,0-0.3,0.1-0.4,0.1h-0.1v0.1c0,0.1,0,0.2,0.1,0.3l0.4,0.8l0.8,1.3"/>
		<path id="path3093" d="M110.3,192.3c0.3-0.3,0.7-0.5,1.1-0.6c0.4-0.1,0.8-0.1,1.2,0.1c0.8,0.3,1.5,0.9,1.7,1.7
			c0.1,0.4,0.2,0.8,0.1,1.2c-0.2,1-1.2,1.7-2.2,1.6c-0.6,0-1.3-0.3-1.7-0.8c-0.3-0.3-0.5-0.7-0.7-1.1c-0.1-0.4-0.1-0.8,0-1.2
			C109.9,193,110.1,192.6,110.3,192.3 M110.7,192.6c-0.5,0.5-0.3,1.3,0.6,2.2c0.9,0.9,1.7,1.1,2.2,0.6c0.3-0.3,0.4-0.7,0.3-1.1
			c-0.2-0.4-0.5-0.8-0.8-1.2c-0.3-0.4-0.7-0.7-1.2-0.9C111.4,192.2,111,192.3,110.7,192.6"/>
	</g>
	<path id="path2666" class="st2" d="M144.6,167.7l0.2,1.8"/>
	<path id="path2668" class="st2" d="M139.1,168.6l0.4,1.8"/>
	<path id="path2670" class="st2" d="M133.8,170.1l0.6,1.8"/>
	<path id="path2672" class="st2" d="M128.6,172l0.8,1.7"/>
	<path id="path3336" class="st3" d="M176.5,174.5l-3.6,6.1"/>
	<g id="use3338">
		<path id="path3336-2" class="st3" d="M202.8,220.2h-7.1"/>
	</g>
	<g id="use3340">
		<path id="path3336-3" class="st3" d="M176.5,265.9l-3.5-6.1"/>
	</g>
	<g id="use3342">
		<path id="path3336-4" class="st3" d="M123.7,174.5l3.5,6.1"/>
	</g>
	<g id="use3344">
		<path id="path3336-5" class="st3" d="M97.3,220.3h7.1"/>
	</g>
	<g id="use3346">
		<path id="path3336-6" class="st3" d="M123.7,266l3.5-6.1"/>
	</g>
	<path id="path3373" d="M153.5,220.6c0,2-1.6,3.6-3.6,3.6c-2,0-3.6-1.6-3.6-3.6s1.6-3.6,3.6-3.6
		C151.9,216.9,153.5,218.6,153.5,220.6L153.5,220.6z"/>
</g>
</svg>
