<svg id="Layer_1" data-name="Layer 1" xmlns="http://www.w3.org/2000/svg" viewBox="0 0 409.6 333.31"><defs><style>.cls-1{fill:#fff;}</style></defs><path id="twitter" class="cls-1" d="M460.29,129a172.18,172.18,0,0,1-48.13,13.32A81.89,81.89,0,0,0,449,95.74a176.58,176.58,0,0,1-53.24,20.48,84,84,0,0,0-145.41,57.35,76.56,76.56,0,0,0,2,18.94C182.78,189.44,121.34,155.65,79.87,105c-29.69,53.25,3.59,97.28,25.6,112.13-13.31,0-26.62-4.1-37.89-10.24,0,41.47,29.19,75.77,67.08,83.45-8.2,2.56-26.63,4.1-37.89,1.54,10.75,33.28,42,57.86,78.33,58.37C146.43,372.74,104.45,390.66,50.69,385a236.8,236.8,0,0,0,129,37.89c154.63,0,238.59-128,238.59-238.59a75.88,75.88,0,0,0-.51-10.75c17.41-12.8,31.75-27.65,42.5-44.55Z" transform="translate(-50.69 -89.6)"/></svg>